<?xml version="1.0" standalone="no"?>
<!DOCTYPE svg PUBLIC "-//W3C//DTD SVG 20010904//EN"
 "http://www.w3.org/TR/2001/REC-SVG-20010904/DTD/svg10.dtd">
<svg version="1.0" xmlns="http://www.w3.org/2000/svg"
 width="127.000000pt" height="127.000000pt" viewBox="0 0 127.000000 127.000000"
 preserveAspectRatio="xMidYMid meet">
<metadata>
Created by potrace 1.14, written by Peter Selinger 2001-2017
</metadata>
<g transform="translate(0.000000,127.000000) scale(0.100000,-0.100000)"
fill="#000000" stroke="none">
<path d="M327 1099 c-32 -17 -38 -25 -33 -42 3 -12 6 -37 6 -54 0 -22 5 -33
15 -33 8 0 19 -9 25 -20 8 -15 21 -20 55 -20 24 0 46 -4 49 -9 3 -5 22 -12 41
-15 19 -4 39 -16 45 -27 9 -16 7 -21 -12 -28 -13 -5 -26 -7 -31 -4 -16 9 -117
-28 -127 -47 -14 -25 -2 -95 20 -123 13 -15 15 -27 9 -39 -8 -16 -12 -16 -55
-1 -220 75 -398 -202 -241 -374 l20 -23 -23 -25 c-13 -14 -34 -25 -47 -25 -20
0 -23 -5 -23 -38 l0 -39 107 -6 c137 -9 1001 -9 1082 -1 l61 7 0 38 c0 36 -2
39 -28 39 -31 0 -72 25 -72 44 0 7 10 21 21 32 51 45 72 142 49 224 -30 108
-167 182 -277 151 -31 -9 -32 -8 -77 66 -25 41 -46 79 -46 83 0 4 18 13 40 20
42 14 51 27 25 36 -9 4 -15 19 -15 40 0 43 -21 93 -48 117 -12 11 -18 26 -15
37 6 24 -37 33 -152 34 -67 0 -90 -4 -139 -27 -72 -33 -73 -33 -73 -1 0 34
-40 74 -72 74 -14 -1 -43 -10 -64 -21z m113 -303 c0 -20 -14 -33 -31 -29 -20
5 -24 15 -12 26 7 8 43 10 43 3z m207 -22 c-3 -3 -12 -4 -19 -1 -8 3 -5 6 6 6
11 1 17 -2 13 -5z m-17 -51 c0 -10 -20 -40 -20 -31 0 3 -3 13 -6 22 -4 11 -1
16 10 16 9 0 16 -3 16 -7z m133 -56 c-9 -31 -19 -57 -23 -57 -4 0 -13 11 -20
25 -13 24 -11 28 20 60 19 19 35 33 37 32 1 -2 -5 -29 -14 -60z m117 -29 c12
-26 6 -38 -46 -92 -6 -6 -18 -25 -26 -41 l-16 -29 -13 42 c-12 43 -6 79 33
182 l9 24 24 -29 c13 -17 29 -42 35 -57z m-362 45 c6 -16 12 -35 15 -43 3 -8
12 -32 21 -53 l17 -38 -54 43 c-76 60 -85 77 -57 100 31 25 46 23 58 -9z m5
-180 c-24 -18 -41 -16 -48 7 -4 11 -18 34 -32 50 -15 19 -23 37 -19 47 6 13
17 6 62 -38 49 -49 53 -55 37 -66z m154 -20 c-25 -14 -49 -17 -28 -4 15 10 14
15 -16 110 -2 9 11 -9 31 -39 l35 -55 -22 -12z m-133 -32 c3 -4 19 -11 36 -14
27 -6 30 -10 30 -43 0 -49 44 -94 94 -94 25 0 36 -5 36 -14 0 -26 21 -29 46
-5 23 22 24 22 44 4 26 -23 25 -43 -2 -72 -21 -22 -27 -23 -190 -23 -155 0
-170 2 -188 20 -26 26 -25 32 7 81 21 31 28 57 31 105 4 59 6 64 28 64 12 0
25 -4 28 -9z"/>
</g>
</svg>
